<?xml version="1.0" encoding="UTF-8"?>
<svg id="Layer_1" data-name="Layer 1" xmlns="http://www.w3.org/2000/svg" version="1.1" viewBox="0 0 960 560">
  <defs>
    <style>
      .cls-1 {
        fill: #000;
      }

      .cls-1, .cls-2 {
        stroke-width: 0px;
      }

      .cls-2 {
        fill: #fff;
      }
    </style>
  </defs>
  <path class="cls-2" d="M962,560H-3V0h965v560ZM482.22,449.53c26.96,0,53.92,0,80.87,0,112.29,0,224.58,0,336.88-.03,1.52,0,3.12-.07,4.54-.53.97-.31,2.28-1.28,2.38-2.08.1-.8-.94-2.06-1.8-2.61-3.76-2.44-7.65-4.67-11.47-7.02-8.48-5.21-16.99-10.38-25.41-15.68-14-8.82-27.9-17.79-41.9-26.6-10.68-6.72-21.48-13.26-32.19-19.94-9.8-6.12-19.55-12.34-29.31-18.52-8.64-5.47-17.25-10.97-25.9-16.4-9.28-5.82-18.54-11.67-27.95-17.28-1.18-.7-3.36-.52-4.72.07-2.09.9-3.83,2.58-5.8,3.82-8.06,5.08-16.17,10.1-24.23,15.18-8.73,5.5-17.45,11.03-26.16,16.57-7.57,4.8-15.13,9.61-22.67,14.45-3.77,2.42-7.72,4.62-11.19,7.42-4.9,3.93-5.74,4.17-10.75.4-.29-.22-.64-.35-.94-.53-5.05-3.1-10.13-6.15-15.13-9.31-8.66-5.47-17.27-11.03-25.92-16.52-6.23-3.95-12.53-7.78-18.74-11.75-8.15-5.21-16.22-10.55-24.38-15.74-8.79-5.58-17.63-11.08-26.49-16.55-3.35-2.07-6.77-4.06-10.26-5.88-.75-.39-2.16-.19-2.94.27-8.19,4.82-16.37,9.67-24.45,14.67-9.53,5.89-18.97,11.92-28.42,17.92-9.15,5.81-18.26,11.7-27.42,17.51-9.83,6.24-19.7,12.41-29.54,18.64-4.93,3.12-9.84,6.26-14.71,9.47-2.01,1.33-3.51.53-4.98-.83-.33-.3-.58-.72-.95-.95-7.91-4.96-15.82-9.93-23.76-14.83-6.58-4.06-13.25-7.96-19.79-12.07-13.38-8.4-26.71-16.89-40.04-25.37-2.57-1.64-4.94-3.62-7.6-5.07-1.51-.82-3.91-1.77-5.1-1.14-5.08,2.67-9.9,5.85-14.73,8.97-7.59,4.91-15.05,10.02-22.69,14.86-7.03,4.46-14.26,8.59-21.34,12.99-8.74,5.43-17.37,11.03-26.1,16.47-8.28,5.16-16.67,10.18-24.95,15.34-11.78,7.34-23.49,14.81-35.29,22.14-14.22,8.84-28.51,17.59-42.73,26.42-2.55,1.59-4.98,3.38-7.44,5.12-1.96,1.38-1.14,2.73.45,3.44,1.5.67,3.26,1.08,4.91,1.08,139.43.05,278.86.04,418.3.05ZM907.73,474.42c-1.76-3.35-4.67-3.48-7.76-3.48-231.57.02-463.15,0-694.72,0-46.9,0-93.79,0-140.69.06-1.57,0-3.24.35-4.68.97-.91.39-2.06,1.6-2.04,2.42.02.85,1.17,1.98,2.1,2.42,1.08.51,2.45.53,3.69.53,232.3.02,464.6.03,696.91.03,46.99,0,93.98-.01,140.97,0,2.56,0,4.86-.36,6.23-2.97ZM466.05,457.26c-106.55,0-213.1,0-319.64,0-29.05,0-58.1,0-87.15.1-1.5,0-3.12.6-4.46,1.34-1.58.86-1.54,2.39.12,3.04,2.03.79,4.27,1.46,6.42,1.47,31.05.12,62.11.15,93.16.15,186.23,0,372.46-.03,558.69-.05,52.82,0,105.64-.01,158.46-.06,1.69,0,3.44-.26,5.04-.78.7-.23,1.57-1.45,1.51-2.15-.08-.87-.88-2.08-1.66-2.38-1.39-.53-3-.66-4.52-.66-135.32-.03-270.65-.02-405.97-.03ZM517.18,491.04h0c107.92,0,215.84,0,323.76-.01.82,0,1.79.26,2.43-.09,1.41-.78,3.67-1.8,3.74-2.86.12-1.8-1.91-2.74-3.78-2.99-1.17-.16-2.36-.23-3.54-.24-5.83-.05-11.66-.08-17.48-.08-83.06-.01-166.11-.02-249.17-.02-125.59,0-251.18,0-376.76.01-1.54,0-3.11.05-4.61.36-1.61.34-2.7,1.31-2.54,3.24.16,1.98,1.53,2.47,3.1,2.65,1.08.12,2.18.03,3.28.03,107.19,0,214.38,0,321.57,0ZM124.22,487.69c-1.22-2.65-3.51-2.93-5.93-2.93-8,0-16.01-.03-24.01-.01-3.56,0-5.52,1.18-5.45,3.15.06,1.9,2.21,3.14,5.55,3.14,7.82.01,15.64-.06,23.46.04,2.77.04,5.17-.25,6.38-3.39ZM899.96,463.2h0c1.91.01,3.82.06,5.73,0,1.57-.05,3.23.29,3.34-2.34.1-2.52-.79-3.54-3.16-3.54-4.1,0-8.19,0-12.29-.02-2.22-.02-2.59,1.28-2.67,3.18-.09,2.13.97,2.72,2.77,2.73,2.09.01,4.19,0,6.28,0ZM867.56,490.92c1.64,0,3.28.08,4.91-.02,1.59-.1,2.58-.85,2.67-2.68.09-1.85-.53-3.09-2.4-3.18-3.36-.17-6.73-.21-10.08-.13-.56.01-1.43.82-1.59,1.41-.96,3.53-.08,4.62,3.49,4.62,1,0,2,0,3,0ZM177.13,490.99v-6.04c-3.81,0-7.44-.1-11.05.04-2.25.08-1.76,2.05-1.63,3.34.09.93.88,2.51,1.43,2.55,3.69.23,7.41.12,11.25.12ZM144.24,490.97h0c1.36,0,2.73-.07,4.09.03,2.01.15,2.24-1.05,2.12-2.58-.12-1.51.65-3.53-2.03-3.55-2.45-.02-4.91.04-7.36-.04-2.06-.07-2.8.68-2.87,2.86-.09,2.61.67,3.71,3.33,3.32.89-.13,1.81-.02,2.72-.02Z"/>
  <path class="cls-1" d="M482.22,449.53c-139.43,0-278.86,0-418.3-.05-1.65,0-3.4-.41-4.91-1.08-1.59-.71-2.4-2.05-.45-3.44,2.46-1.74,4.89-3.53,7.44-5.12,14.23-8.83,28.51-17.58,42.73-26.42,11.79-7.33,23.5-14.79,35.29-22.14,8.29-5.16,16.67-10.17,24.95-15.34,8.73-5.44,17.37-11.04,26.1-16.47,7.07-4.4,14.3-8.54,21.34-12.99,7.64-4.84,15.09-9.95,22.69-14.86,4.83-3.12,9.65-6.29,14.73-8.97,1.2-.63,3.59.32,5.1,1.14,2.66,1.45,5.03,3.43,7.6,5.07,13.33,8.48,26.66,16.97,40.04,25.37,6.54,4.11,13.22,8.01,19.79,12.07,7.95,4.9,15.85,9.87,23.76,14.83.37.23.62.65.95.95,1.47,1.37,2.97,2.16,4.98.83,4.87-3.21,9.78-6.35,14.71-9.47,9.84-6.23,19.71-12.4,29.54-18.64,9.16-5.81,18.27-11.7,27.42-17.51,9.46-6.01,18.9-12.03,28.42-17.92,8.08-5,16.26-9.85,24.45-14.67.79-.46,2.2-.66,2.94-.27,3.49,1.82,6.91,3.81,10.26,5.88,8.86,5.47,17.7,10.97,26.49,16.55,8.17,5.19,16.23,10.53,24.38,15.74,6.21,3.97,12.51,7.8,18.74,11.75,8.65,5.48,17.26,11.05,25.92,16.52,5.01,3.16,10.09,6.22,15.13,9.31.31.19.66.32.94.53,5.02,3.77,5.86,3.53,10.75-.4,3.47-2.79,7.42-5,11.19-7.42,7.55-4.84,15.11-9.64,22.67-14.45,8.71-5.53,17.43-11.07,26.16-16.57,8.07-5.08,16.17-10.1,24.23-15.18,1.96-1.24,3.71-2.92,5.8-3.82,1.36-.59,3.55-.77,4.72-.07,9.4,5.61,18.67,11.45,27.95,17.28,8.66,5.43,17.27,10.94,25.9,16.4,9.77,6.18,19.51,12.39,29.31,18.52,10.71,6.69,21.51,13.22,32.19,19.94,14,8.81,27.9,17.78,41.9,26.6,8.42,5.31,16.93,10.47,25.41,15.68,3.82,2.35,7.71,4.58,11.47,7.02.86.56,1.89,1.81,1.8,2.61-.1.8-1.41,1.77-2.38,2.08-1.43.46-3.02.53-4.54.53-112.29.03-224.58.03-336.88.03-26.96,0-53.92,0-80.87,0ZM888.08,442.85c.03-.2.06-.4.08-.61-59.79-37.47-119.58-74.94-179.9-112.74.26,1.9.16,3.34.67,4.52,2.22,5.09,4.52,10.15,6.97,15.14,3.28,6.69,6.74,13.28,10.07,19.94,5.09,10.2,10.15,20.41,15.18,30.63,4.4,8.92,8.75,17.86,13.12,26.79,1.89,3.86,3.73,7.73,5.65,11.57,1.6,3.21,3.6,4.9,7.84,4.87,39.32-.24,78.65-.12,117.97-.11.78,0,1.57,0,2.35,0ZM687,442.8c-1.49-1.17-2.55-2.15-3.74-2.91-8.46-5.44-16.93-10.85-25.42-16.23-8.1-5.14-16.26-10.19-24.33-15.38-7.51-4.83-14.92-9.82-22.41-14.69-3.83-2.49-7.76-4.83-11.61-7.3-8.28-5.32-16.51-10.73-24.82-16.01-8.03-5.1-16.13-10.1-24.2-15.13-5.45-3.4-10.93-6.75-16.36-10.18-5.31-3.35-10.56-6.81-15.87-10.16-6.07-3.83-12.19-7.57-18.26-11.39-5.51-3.46-10.99-6.97-16.49-10.44-.25-.16-.57-.23-.85-.34,1.29,2.14,3.09,3.75,4.48,5.64,4.42,6.01,8.61,12.19,13.05,18.18,5.91,7.97,11.92,15.88,18.01,23.72,7.69,9.91,15.52,19.71,23.28,29.57,7.03,8.94,14.03,17.91,21.06,26.86,5.47,6.95,11.03,13.82,16.43,20.83,2.84,3.68,5.89,5.7,11.03,5.54,15.19-.45,30.4-.16,45.6-.16,17.01,0,34.03,0,51.41,0Z"/>
  <path class="cls-1" d="M907.73,474.42c-1.37,2.61-3.67,2.97-6.23,2.97-46.99-.02-93.98,0-140.97,0-232.3,0-464.6,0-696.91-.03-1.24,0-2.61-.03-3.69-.53-.93-.44-2.07-1.57-2.1-2.42-.02-.82,1.12-2.03,2.04-2.42,1.44-.62,3.11-.97,4.68-.97,46.9-.05,93.79-.06,140.69-.06,231.57,0,463.15.01,694.72,0,3.09,0,6,.13,7.76,3.48Z"/>
  <path class="cls-1" d="M466.05,457.26c135.32,0,270.65,0,405.97.03,1.52,0,3.13.13,4.52.66.78.3,1.58,1.51,1.66,2.38.06.69-.81,1.92-1.51,2.15-1.6.52-3.35.78-5.04.78-52.82.05-105.64.05-158.46.06-186.23.02-372.46.04-558.69.05-31.05,0-62.11-.03-93.16-.15-2.15,0-4.39-.68-6.42-1.47-1.66-.64-1.7-2.17-.12-3.04,1.34-.73,2.96-1.33,4.46-1.34,29.05-.09,58.1-.1,87.15-.1,106.55,0,213.1,0,319.64,0Z"/>
  <path class="cls-1" d="M517.18,491.04c-107.19,0-214.38,0-321.57,0-1.09,0-2.2.09-3.28-.03-1.57-.18-2.94-.67-3.1-2.65-.16-1.93.93-2.9,2.54-3.24,1.5-.31,3.07-.36,4.61-.36,125.59-.02,251.18-.02,376.76-.01,83.06,0,166.11,0,249.17.02,5.83,0,11.66.04,17.48.08,1.18,0,2.37.08,3.54.24,1.87.25,3.9,1.19,3.78,2.99-.07,1.05-2.33,2.07-3.74,2.86-.63.35-1.61.09-2.43.09-107.92,0-215.84,0-323.76,0h0Z"/>
  <path class="cls-1" d="M124.22,487.69c-1.22,3.14-3.62,3.42-6.38,3.39-7.82-.1-15.64-.03-23.46-.04-3.34,0-5.49-1.24-5.55-3.14-.06-1.97,1.89-3.14,5.45-3.15,8-.02,16.01,0,24.01.01,2.42,0,4.71.29,5.93,2.93Z"/>
  <path class="cls-1" d="M899.96,463.2c-2.09,0-4.19,0-6.28,0-1.8-.01-2.86-.6-2.77-2.73.08-1.9.45-3.19,2.67-3.18,4.1.03,8.19.02,12.29.02,2.37,0,3.27,1.02,3.16,3.54-.11,2.64-1.77,2.29-3.34,2.34-1.91.06-3.82.02-5.73.02h0Z"/>
  <path class="cls-1" d="M867.56,490.93c-1,0-2,0-3,0-3.57,0-4.45-1.09-3.49-4.62.16-.59,1.03-1.4,1.59-1.41,3.36-.08,6.73-.04,10.08.13,1.87.1,2.49,1.33,2.4,3.18-.09,1.83-1.07,2.58-2.67,2.68-1.63.11-3.28.02-4.91.03Z"/>
  <path class="cls-1" d="M177.13,490.99c-3.84,0-7.56.11-11.25-.12-.55-.03-1.34-1.62-1.43-2.55-.13-1.29-.63-3.25,1.63-3.34,3.62-.14,7.24-.04,11.05-.04v6.04Z"/>
  <path class="cls-1" d="M144.24,490.97c-.91,0-1.83-.11-2.72.02-2.66.39-3.42-.71-3.33-3.32.07-2.17.8-2.93,2.87-2.86,2.45.09,4.9.02,7.36.04,2.69.02,1.92,2.05,2.03,3.55.12,1.53-.11,2.73-2.12,2.58-1.35-.1-2.72-.02-4.09-.02h0Z"/>
  <path class="cls-2" d="M888.08,442.85c-.78,0-1.57,0-2.35,0-39.32-.01-78.65-.13-117.97.11-4.24.03-6.24-1.66-7.84-4.87-1.92-3.84-3.76-7.72-5.65-11.57-4.37-8.93-8.72-17.87-13.12-26.79-5.04-10.22-10.1-20.43-15.18-30.63-3.32-6.66-6.79-13.25-10.07-19.94-2.44-4.99-4.75-10.04-6.97-15.14-.51-1.17-.41-2.62-.67-4.52,60.32,37.8,120.11,75.27,179.9,112.74-.03.2-.06.4-.08.61Z"/>
  <path class="cls-2" d="M687,442.8c-17.38,0-34.39,0-51.41,0-15.2,0-30.41-.28-45.6.16-5.15.15-8.2-1.86-11.03-5.54-5.4-7-10.97-13.88-16.43-20.83-7.04-8.94-14.03-17.91-21.06-26.86-7.75-9.86-15.58-19.66-23.28-29.57-6.09-7.84-12.09-15.75-18.01-23.72-4.44-5.99-8.63-12.17-13.05-18.18-1.4-1.9-3.19-3.5-4.48-5.64.29.11.6.18.85.34,5.5,3.48,10.98,6.98,16.49,10.44,6.08,3.81,12.2,7.56,18.26,11.39,5.31,3.35,10.56,6.81,15.87,10.16,5.43,3.43,10.91,6.78,16.36,10.18,8.07,5.03,16.17,10.03,24.2,15.13,8.31,5.28,16.53,10.69,24.82,16.01,3.85,2.47,7.78,4.81,11.61,7.3,7.49,4.87,14.9,9.86,22.41,14.69,8.07,5.19,16.23,10.24,24.33,15.38,8.49,5.39,16.96,10.8,25.42,16.23,1.19.77,2.25,1.74,3.74,2.91Z"/>
</svg>